<svg xmlns="http://www.w3.org/2000/svg" viewBox="0 0 32 32"><g data-name="88-Real Estate-Online"><path d="M29 0H3a3 3 0 0 0-3 3v26a3 3 0 0 0 3 3h26a3 3 0 0 0 3-3V3a3 3 0 0 0-3-3zm1 29a1 1 0 0 1-1 1H3a1 1 0 0 1-1-1V10h28zm0-21H2V3a1 1 0 0 1 1-1h26a1 1 0 0 1 1 1z" fill="currentColor"/><path d="M4 4h2v2H4zM8 4h2v2H8zM26 4h2v2h-2zM11 27h10a1 1 0 0 0 1-1v-8a1 1 0 0 0-.37-.78l-5-4a1 1 0 0 0-1.25 0l-5 4A1 1 0 0 0 10 18v8a1 1 0 0 0 1 1zm1-8.52 4-3.2 4 3.2V25h-2v-3a1 1 0 0 0-1-1h-2a1 1 0 0 0-1 1v3h-2z" fill="currentColor"/></g></svg>